{
  "accessors": [
    {
      "bufferView": 2,
      "componentType": 5126,
      "count": 3989,
      "max": [
        626.80810546875,
        2132.7666015625,
        293.73486328125
      ],
      "min": [
        -624.550048828125,
        -15.204574584960938,
        -179.56118774414063
      ],
      "type": "VEC3"
    },
    {
      "bufferView": 2,
      "byteOffset": 47868,
      "componentType": 5126,
      "count": 3989,
      "max": [
        0.999973714351654,
        0.9948778748512268,
        0.9999851584434509
      ],
      "min": [
        -0.9999433159828186,
        -0.9999978542327881,
        -0.9999791979789734
      ],
      "type": "VEC3"
    },
    {
      "bufferView": 3,
      "componentType": 5126,
      "count": 3989,
      "max": [
        0.9999987483024597,
        0.9999827742576599,
        0.9999948740005493,
        1.0
      ],
      "min": [
        -0.997156023979187,
        -0.9994069933891296,
        -0.9999209642410278,
        -1.0
      ],
      "type": "VEC4"
    },
    {
      "bufferView": 1,
      "componentType": 5126,
      "count": 3989,
      "max": [
        0.9882891178131104,
        0.9967577457427979
      ],
      "min": [
        0.003242267295718193,
        0.0032422542572021484
      ],
      "type": "VEC2"
    },
    {
      "bufferView": 1,
      "byteOffset": 31912,
      "componentType": 5126,
      "count": 3989,
      "max": [
        0.9882891178131104,
        0.9967577457427979
      ],
      "min": [
        0.003242267295718193,
        0.0032422542572021484
      ],
      "type": "VEC2"
    },
    {
      "bufferView": 0,
      "componentType": 5125,
      "count": 19134,
      "type": "SCALAR"
    }
  ],
  "asset": {
    "extras": {
      "author": "DJMaesen (https://sketchfab.com/bumstrum)",
      "license": "CC-BY-4.0 (http://creativecommons.org/licenses/by/4.0/)",
      "source": "https://sketchfab.com/3d-models/stone-entrance-ea4a511423bd4a1dab2fe32665edd67e",
      "title": "Stone Entrance"
    },
    "generator": "Sketchfab-11.49.4",
    "version": "2.0"
  },
  "bufferViews": [
    {
      "buffer": 0,
      "byteLength": 76536,
      "name": "floatBufferViews",
      "target": 34963
    },
    {
      "buffer": 0,
      "byteLength": 63824,
      "byteOffset": 76536,
      "byteStride": 8,
      "name": "floatBufferViews",
      "target": 34962
    },
    {
      "buffer": 0,
      "byteLength": 95736,
      "byteOffset": 140360,
      "byteStride": 12,
      "name": "floatBufferViews",
      "target": 34962
    },
    {
      "buffer": 0,
      "byteLength": 63824,
      "byteOffset": 236096,
      "byteStride": 16,
      "name": "floatBufferViews",
      "target": 34962
    }
  ],
  "buffers": [
    {
      "byteLength": 299920,
      "uri": "scene.bin"
    }
  ],
  "images": [
    {
      "uri": "textures/stoneEntrance_baseColor.png"
    },
    {
      "uri": "textures/stoneEntrance_metallicRoughness.png"
    },
    {
      "uri": "textures/stoneEntrance_normal.png"
    }
  ],
  "materials": [
    {
      "name": "stoneEntrance",
      "normalTexture": {
        "index": 2
      },
      "occlusionTexture": {
        "index": 1
      },
      "pbrMetallicRoughness": {
        "baseColorTexture": {
          "index": 0
        },
        "metallicFactor": 0.0,
        "metallicRoughnessTexture": {
          "index": 1
        }
      }
    }
  ],
  "meshes": [
    {
      "name": "stoneEntrance_stoneEntrance_0",
      "primitives": [
        {
          "attributes": {
            "NORMAL": 1,
            "POSITION": 0,
            "TANGENT": 2,
            "TEXCOORD_0": 3,
            "TEXCOORD_1": 4
          },
          "indices": 5,
          "material": 0,
          "mode": 4
        }
      ]
    }
  ],
  "nodes": [
    {
      "children": [
        1
      ],
      "matrix": [
        1.0,
        0.0,
        0.0,
        0.0,
        0.0,
        2.220446049250313e-16,
        -1.0,
        0.0,
        0.0,
        1.0,
        2.220446049250313e-16,
        0.0,
        0.0,
        0.0,
        0.0,
        1.0
      ],
      "name": "Sketchfab_model"
    },
    {
      "children": [
        2
      ],
      "matrix": [
        0.009999999776482582,
        0.0,
        0.0,
        0.0,
        0.0,
        0.0,
        0.009999999776482582,
        0.0,
        0.0,
        -0.009999999776482582,
        0.0,
        0.0,
        0.0,
        0.0,
        0.0,
        1.0
      ],
      "name": "4ea74a97b8124a09ab8812cdd7850421.fbx"
    },
    {
      "children": [
        3
      ],
      "name": "RootNode"
    },
    {
      "children": [
        4
      ],
      "name": "stoneEntrance"
    },
    {
      "mesh": 0,
      "name": "stoneEntrance_stoneEntrance_0"
    }
  ],
  "samplers": [
    {
      "magFilter": 9729,
      "minFilter": 9987,
      "wrapS": 10497,
      "wrapT": 10497
    }
  ],
  "scene": 0,
  "scenes": [
    {
      "name": "Sketchfab_Scene",
      "nodes": [
        0
      ]
    }
  ],
  "textures": [
    {
      "sampler": 0,
      "source": 0
    },
    {
      "sampler": 0,
      "source": 1
    },
    {
      "sampler": 0,
      "source": 2
    }
  ]
}
